<svg
                        xmlns="http://www.w3.org/2000/svg"
                        width="42"
                        height="42"
                        viewBox="0 0 42 42"
                      >
                        <g
                          id="Group_17769"
                          data-name="Group 17769"
                          transform="translate(-1052 -262)"
                        >
                          <g
                            id="Group_17752"
                            data-name="Group 17752"
                            transform="translate(210 -21)"
                          >
                            <rect
                              id="Rectangle_3902"
                              data-name="Rectangle 3902"
                              width="42"
                              height="42"
                              transform="translate(842 283)"
                              fill="none"
                            />
                          </g>
                          <g
                            id="Group_7531"
                            data-name="Group 7531"
                            transform="translate(1060.59 265)"
                          >
                            <path
                              id="Path_89"
                              data-name="Path 89"
                              d="M314.619,145.62v7.5a2.418,2.418,0,0,1-2.413,2.413H311v6.11H290.919V145.612a4.215,4.215,0,0,1,1.063-2.8,4.209,4.209,0,0,1,2.649-1.385l2-.242,2.4-.293,1.4-.173a2.365,2.365,0,0,0,2.347,2.444,2.29,2.29,0,0,0,2.293-2.429v-.015l1.5.18,2.355.286,1.975.242a4.223,4.223,0,0,1,2.65,1.39,4.211,4.211,0,0,1,1.062,2.8Z"
                              transform="translate(-290.365 -126.226)"
                              fill="#2bbcc1"
                            />
                            <path
                              id="Path_90"
                              data-name="Path 90"
                              d="M301.065,150.015h-2.43l-3.46-8.869,2.4-.293Z"
                              transform="translate(-288.909 -126.182)"
                              fill="#dff8ff"
                            />
                            <path
                              id="Path_91"
                              data-name="Path 91"
                              d="M306.612,147.68v5.472H295.5V147.68h11.108"
                              transform="translate(-288.796 -123.846)"
                              fill="#c1ecfb"
                            />
                            <path
                              id="Path_92"
                              data-name="Path 92"
                              d="M306.169,141.143l-4.837,14.346h-2.339l4.822-14.632Z"
                              transform="translate(-287.603 -126.18)"
                              fill="#dff8ff"
                            />
                            <path
                              id="Path_93"
                              data-name="Path 93"
                              d="M293.269,150.291c0,1.829,1.343,2.229,3,2.229v-4.457C294.616,148.063,293.269,148.462,293.269,150.291Z"
                              transform="translate(-289.561 -123.716)"
                              fill="#fcd3c4"
                            />
                            <path
                              id="Path_94"
                              data-name="Path 94"
                              d="M297.072,137.4a.749.749,0,0,1-.472.217c-.531.06-1.394-.569-1.733-2.249-.239-1.162.938-1.08,1.373-.953h.008a3.842,3.842,0,0,0,.441.953A10.66,10.66,0,0,0,297.072,137.4Z"
                              transform="translate(-289.025 -128.407)"
                              fill="#fdc5b1"
                            />
                            <path
                              id="Path_95"
                              data-name="Path 95"
                              d="M306.48,135.494a2.775,2.775,0,0,1-.1.293,3.9,3.9,0,0,1-.5.953s-.075-.27-.2-.608c-.232-.592-.652-1.373-1.177-1.11a5.367,5.367,0,0,1-3.66.69,8.665,8.665,0,0,1-2.715-.675,4.816,4.816,0,0,1-.9,1.11,1.9,1.9,0,0,1-.15.142,2.722,2.722,0,0,1-.675.451,3.845,3.845,0,0,1-.441-.953h-.008a4.766,4.766,0,0,1-.067-2.962c.615-2.123,3.277-2.483,4.732-2.483a12.166,12.166,0,0,1,3.705.742,1.7,1.7,0,0,0,1.455-.615A5.5,5.5,0,0,1,306.48,135.494Z"
                              transform="translate(-288.736 -129.776)"
                              fill="#606060"
                            />
                            <path
                              id="Path_96"
                              data-name="Path 96"
                              d="M302.648,140.752a2.29,2.29,0,0,1-2.295,2.422,2.366,2.366,0,0,1-2.347-2.445v-.015a4.049,4.049,0,0,0,2.315.75,4.044,4.044,0,0,0,2.327-.713Z"
                              transform="translate(-287.941 -126.229)"
                              fill="#fcd3c4"
                            />
                            <path
                              id="Path_97"
                              data-name="Path 97"
                              d="M306.908,135.367c-.337,1.68-1.2,2.31-1.733,2.249a.752.752,0,0,1-.472-.217,10.462,10.462,0,0,0,.383-2.032,3.9,3.9,0,0,0,.5-.953C306.151,134.31,307.148,134.2,306.908,135.367Zm-4.26,5.691v1.868a4.049,4.049,0,0,1-4.642-.038v-1.86a3.412,3.412,0,0,0,2.01,1.087,2.357,2.357,0,0,0,.659,0A3.368,3.368,0,0,0,302.648,141.059Z"
                              transform="translate(-287.941 -128.404)"
                              fill="#fdc5b1"
                            />
                            <path
                              id="Path_98"
                              data-name="Path 98"
                              d="M305.7,135.56a10.457,10.457,0,0,1-.383,2.032c-.059.211-.127.413-.2.616a7.892,7.892,0,0,1-1.852,3.044,3.368,3.368,0,0,1-1.973,1.057,2.357,2.357,0,0,1-.659,0,3.412,3.412,0,0,1-2.01-1.087,8.191,8.191,0,0,1-1.816-3.014c-.075-.2-.142-.405-.2-.616a10.66,10.66,0,0,1-.383-2.032,2.721,2.721,0,0,0,.675-.451,1.9,1.9,0,0,0,.15-.142,4.817,4.817,0,0,0,.9-1.11,8.666,8.666,0,0,0,2.715.675,5.368,5.368,0,0,0,3.66-.69c.525-.263.945.518,1.177,1.11C305.622,135.29,305.7,135.56,305.7,135.56Z"
                              transform="translate(-288.553 -128.597)"
                              fill="#fcd3c4"
                            />
                            <path
                              id="Path_99"
                              data-name="Path 99"
                              d="M294.448,152.187a.564.564,0,0,0-.562.561l-.012,4.955a.562.562,0,0,0,1.123,0l.012-4.952a.564.564,0,0,0-.561-.565Zm15.507.636a.564.564,0,0,0-.564.561l-.011,4.358a.562.562,0,1,0,1.123,0l.012-4.358a.561.561,0,0,0-.561-.564Z"
                              transform="translate(-289.354 -122.305)"
                              fill="#1c1c1b"
                            />
                            <path
                              id="Path_100"
                              data-name="Path 100"
                              d="M314.2,157.673a.994.994,0,0,1-.994.994h-4.343l.012-3.3a.547.547,0,0,0-.164-.4.561.561,0,0,0-.96.393l-.011,3.3H304.99l1.478-4.339,3.225.009a.553.553,0,0,0,.4-.165.545.545,0,0,0,.165-.4l.007-2.665a.564.564,0,0,0-.561-.564.564.564,0,0,0-.562.561l-.005,2.1-2.28-.005,2.625-7.7,1.511.184a3.659,3.659,0,0,1,3.214,3.631Zm-16.42-3.356H302.9l-1.443,4.351h-3.687Zm-3.021,2.159a1.256,1.256,0,0,1,.611-1.318,2.881,2.881,0,0,1,1.286-.322v3.288c-1.554-.115-1.9-.721-1.895-1.648Zm13.576-11.113-4.528,13.3-1.151,0,4.46-13.44Zm-9.56-8.173a3.109,3.109,0,0,0,.456-.349,7.242,7.242,0,0,0,.88-.966c.1.038.225.075.356.121a.547.547,0,0,0,.438-.03.564.564,0,0,0-.1-1.044,5.465,5.465,0,0,1-.667-.25.568.568,0,0,0-.742.248,4.82,4.82,0,0,1-.929,1.1c-.026.024-.052.048-.079.07a4.216,4.216,0,0,1-.192-2.962,2.182,2.182,0,0,1,.538-.93c1-1.037,2.891-1.15,3.656-1.15a7.2,7.2,0,0,1,2.612.45,7.621,7.621,0,0,0,.989.28,1.9,1.9,0,0,0,1.44-.331,5.093,5.093,0,0,1,.285,4.037v.012a1.883,1.883,0,0,0-.8-.851.954.954,0,0,0-.88.024,4.847,4.847,0,0,1-3.354.632q-.209-.02-.407-.048a.563.563,0,0,0-.542.9.533.533,0,0,0,.384.213c.146.023.3.04.455.055a5.845,5.845,0,0,0,3.921-.722,3.215,3.215,0,0,1,.6,1.245,9.872,9.872,0,0,1-.542,2.4,7.334,7.334,0,0,1-1.712,2.829,2.825,2.825,0,0,1-1.659.9,1.711,1.711,0,0,1-.51,0,2.853,2.853,0,0,1-1.68-.925,7.67,7.67,0,0,1-1.684-2.81,9.819,9.819,0,0,1-.522-2.143Zm-1.875-.417a.442.442,0,0,1,0-.28.668.668,0,0,1,.411-.062,4.745,4.745,0,0,0,.318.64,10.978,10.978,0,0,0,.248,1.463c-.255-.122-.737-.595-.977-1.759Zm12.03,0a2.317,2.317,0,0,1-.98,1.761,10.8,10.8,0,0,0,.247-1.448,4.784,4.784,0,0,0,.352-.64.86.86,0,0,1,.392.019.55.55,0,0,1-.011.309Zm-4.276,7.662a1.714,1.714,0,0,1-1.731,1.867,1.783,1.783,0,0,1-1.677-1.17,1.738,1.738,0,0,1-.106-.713V143.7a3.42,3.42,0,0,0,1.366.484,2.929,2.929,0,0,0,.811,0,3.463,3.463,0,0,0,1.341-.467v.71Zm6.47.134-1.973-.239h-.007l-2.347-.286h-.011l-1.006-.121V142.79a8.627,8.627,0,0,0,1.818-3.066l.016-.05a.484.484,0,0,1,.063.015,1.045,1.045,0,0,0,.144.009c.825,0,1.828-.819,2.212-2.7a1.3,1.3,0,0,0-.285-1.317,1.272,1.272,0,0,0-.839-.364,5.921,5.921,0,0,0-.931-5.071.539.539,0,0,0-.421-.195.49.49,0,0,0-.424.188c-.005.005-.48.514-.931.431a6.616,6.616,0,0,1-.843-.239,8.32,8.32,0,0,0-2.969-.51,6.385,6.385,0,0,0-4.468,1.49,3.308,3.308,0,0,0-.809,1.4,5.337,5.337,0,0,0-.13,2.507,1.4,1.4,0,0,0-.847.352,1.247,1.247,0,0,0-.341,1.333c.384,1.881,1.386,2.7,2.212,2.7a1.264,1.264,0,0,0,.142-.008.242.242,0,0,0,.063-.016l.016.05a8.856,8.856,0,0,0,1.785,3.033v1.169l-.829.106a.474.474,0,0,0-.075.005l-2.363.291h-.034l-2,.242a4.781,4.781,0,0,0-4.2,4.747v16.022a.562.562,0,0,0,1.125,0V149.315a3.663,3.663,0,0,1,3.213-3.631l1.593-.195,2.767,6.941a.563.563,0,0,0,1.045-.417l-2.663-6.662,1.225-.153,2.814,7.233a.518.518,0,0,0,.525.358.561.561,0,0,0,.2-.038.564.564,0,0,0,.319-.729l-2.709-6.965.107-.013a3.849,3.849,0,0,0,.1.389l.009.027a3.117,3.117,0,0,0,.381.794v.005a2.7,2.7,0,0,0,.287.354l.024.024a2.445,2.445,0,0,0,.809.552l.028.012a2.742,2.742,0,0,0,.525.156l.047.008a3.312,3.312,0,0,0,1.252,0l.042-.007a2.818,2.818,0,0,0,.521-.15l.032-.013a2.4,2.4,0,0,0,.8-.548l.013-.013a3.029,3.029,0,0,0,.766-1.59l.255.031-2.688,8.115h-6.069a.558.558,0,0,0-.553.521,4,4,0,0,0-1.875.482,2.468,2.468,0,0,0-1.157,2.279c-.005,2.355,1.9,2.727,3.028,2.786a.557.557,0,0,0,.556.53h16a2.12,2.12,0,0,0,1.958-1.308,2.125,2.125,0,0,0,.162-.811v-8.355a4.783,4.783,0,0,0-4.206-4.747Z"
                              transform="translate(-290.506 -129.92)"
                              fill="#1c1c1b"
                            />
                            <path
                              id="Path_101"
                              data-name="Path 101"
                              d="M298.691,136.4a.562.562,0,1,0,0-1.125h-.2a.562.562,0,0,0,0,1.125Zm3.32,0h.2a.562.562,0,0,0,0-1.125h-.2a.562.562,0,0,0,0,1.125Z"
                              transform="translate(-287.966 -128.091)"
                              fill="#1c1c1b"
                            />
                          </g>
                        </g>
                      </svg>