<svg xmlns="http://www.w3.org/2000/svg" xmlns:xlink="http://www.w3.org/1999/xlink" width="42" height="42" viewBox="0 0 42 42">
  <defs>
    <clipPath id="clip-path">
      <rect id="Rectangle_8" data-name="Rectangle 8" width="34" height="34" fill="none"/>
    </clipPath>
  </defs>
  <g id="Group_17779" data-name="Group 17779" transform="translate(-1026 -865)">
    <g id="Group_17752" data-name="Group 17752" transform="translate(184 582)">
      <rect id="Rectangle_3902" data-name="Rectangle 3902" width="42" height="42" transform="translate(842 283)" fill="none"/>
    </g>
    <g id="Group_17779-2" data-name="Group 17779" transform="translate(1030 869)">
      <g id="Group_9" data-name="Group 9" transform="translate(0 0)" clip-path="url(#clip-path)">
        <path id="Path_33" data-name="Path 33" d="M222.848,53.384c1.062.038,6.117,5.871,6.117,13.065a10.229,10.229,0,0,1,4.777-1.771,13.72,13.72,0,0,1,4.922,1.281,16.218,16.218,0,0,0-15.816-12.576Z" transform="translate(-205.753 -51.33)" fill="#2bbcc1"/>
        <path id="Path_34" data-name="Path 34" d="M224.144,53.384h-.024C223.066,53.412,218,59.249,218,66.45a13.77,13.77,0,0,1,6.034-1.393,15.238,15.238,0,0,1,6.226,1.389C230.261,59.252,225.205,53.418,224.144,53.384Z" transform="translate(-207.05 -51.33)" fill="#c1ecfb"/>
        <path id="Path_35" data-name="Path 35" d="M226.2,53.384h-.056A16.062,16.062,0,0,0,210.218,65.96a14.17,14.17,0,0,1,5.005-1.281,10.511,10.511,0,0,1,4.859,1.771C220.085,59.245,225.15,53.408,226.2,53.384Z" transform="translate(-209.131 -51.33)" fill="#2bbcc1"/>
        <path id="Path_36" data-name="Path 36" d="M223.775,63.465a.53.53,0,0,0-.531.531v16a1.578,1.578,0,0,1-.45,1.137,1.574,1.574,0,0,1-2.592-.523,1.539,1.539,0,0,1-.11-.613.532.532,0,0,0-1.063,0,2.641,2.641,0,0,0,3.659,2.478,2.634,2.634,0,0,0,1.431-1.455,2.615,2.615,0,0,0,.188-1.023V64a.528.528,0,0,0-.531-.531Z" transform="translate(-206.775 -48.633)" fill="#1a1a1a"/>
        <path id="Path_37" data-name="Path 37" d="M237.236,64.578a9.246,9.246,0,0,0-4.275,1.369,19.711,19.711,0,0,0-4.293-10.837.531.531,0,1,0-.82.676A18.571,18.571,0,0,1,231.9,66.065a15.792,15.792,0,0,0-5.674-1.105,14.582,14.582,0,0,0-5.478,1.086,18.61,18.61,0,0,1,4.056-10.263.531.531,0,1,0-.82-.674,19.7,19.7,0,0,0-4.293,10.843,9.531,9.531,0,0,0-4.359-1.376,12.845,12.845,0,0,0-4.25.92,15.606,15.606,0,0,1,15.17-11.156,15.81,15.81,0,0,1,2.507.188,15.715,15.715,0,0,1,6.905,2.876,15.706,15.706,0,0,1,5.712,8.084,12.413,12.413,0,0,0-4.148-.911Zm5.441,1.7a16.722,16.722,0,0,0-5.692-9.192,16.7,16.7,0,0,0-10.128-3.78V52.294a.531.531,0,0,0-1.062,0V53.3a16.576,16.576,0,0,0-15.984,12.984.531.531,0,0,0,.747.586,13.646,13.646,0,0,1,4.778-1.232,10.044,10.044,0,0,1,4.559,1.679c.009.008.023.006.034.013a.524.524,0,0,0,.2.071c.015,0,.029.008.046.009s.011,0,.018,0a.508.508,0,0,0,.231-.06.032.032,0,0,0,.019,0,13.409,13.409,0,0,1,5.785-1.328,14.87,14.87,0,0,1,5.989,1.333h.014a.471.471,0,0,0,.408.015.514.514,0,0,0,.054-.024.5.5,0,0,0,.065-.032,9.76,9.76,0,0,1,4.473-1.677,13.3,13.3,0,0,1,4.693,1.229.531.531,0,0,0,.748-.589Z" transform="translate(-209.244 -51.763)" fill="#1a1a1a"/>
      </g>
    </g>
  </g>
</svg>
