<svg xmlns="http://www.w3.org/2000/svg" xmlns:xlink="http://www.w3.org/1999/xlink" width="32" height="32" viewBox="0 0 32 32">
  <defs>
    <clipPath id="clip-path">
      <path id="Path_10499" data-name="Path 10499" d="M13.8,37.832c7.731.036,14.095-5.912,14.214-13.283L.091,23.868A13.892,13.892,0,0,0,13.8,37.832" transform="translate(-0.091 -23.868)" fill="none"/>
    </clipPath>
    <clipPath id="clip-path-2">
      <path id="Path_10508" data-name="Path 10508" d="M14.231,8.125C6.532,8.125.2,14.059.086,21.408h0C-.03,28.78,6.139,34.785,13.87,34.822S27.964,28.91,28.084,21.539,22.033,8.161,14.3,8.125Z" transform="translate(-0.086 -8.125)" fill="none"/>
    </clipPath>
    <clipPath id="clip-path-3">
      <rect id="Rectangle_7578" data-name="Rectangle 7578" width="29.869" height="24.175" fill="none"/>
    </clipPath>
  </defs>
  <g id="Group_17594" data-name="Group 17594" transform="translate(-21874 -21293)">
    <g id="Group_17560" data-name="Group 17560" transform="translate(-187.086 2252.983)">
      <g id="Group_17552" data-name="Group 17552" transform="translate(22063.09 19055.922)">
        <g id="Group_17551" data-name="Group 17551" transform="translate(0 0)" clip-path="url(#clip-path)">
          <path id="Path_10497" data-name="Path 10497" d="M0,24.5c-.12,7.371,6.05,13.377,13.781,13.413S27.879,32,28,24.626Z" transform="translate(-0.079 -23.947)" fill="#e47900"/>
          <path id="Path_10498" data-name="Path 10498" d="M1.872,15.238,1.8,20.1c-.12,7.376,6.05,13.377,13.781,13.413S29.674,27.6,29.793,20.229l.074-4.861Z" transform="translate(-0.304 -22.789)" fill="#f0dcc3"/>
        </g>
      </g>
      <g id="Group_17559" data-name="Group 17559" transform="translate(22063.086 19042.148)">
        <g id="Group_17558" data-name="Group 17558" transform="translate(0 0)" clip-path="url(#clip-path-2)">
          <path id="Path_10500" data-name="Path 10500" d="M28.084,21.537c-.12,7.371-6.483,13.319-14.214,13.283S-.031,28.78.089,21.408,6.572,8.089,14.3,8.125s13.9,6.037,13.781,13.413" transform="translate(-0.086 -8.125)" fill="#ffe431"/>
          <path id="Path_10501" data-name="Path 10501" d="M26.315,21.81c-.1,6.286-5.528,11.356-12.119,11.325A11.506,11.506,0,0,1,2.447,21.7c.1-6.286,5.527-11.356,12.121-11.325A11.5,11.5,0,0,1,26.317,21.81" transform="translate(-0.381 -8.406)" fill="#f8bc22"/>
          <path id="Path_10502" data-name="Path 10502" d="M19.45,24.4a2.761,2.761,0,0,0-.724-.778c-.224-.157-.258-.315-.044-.527a2.563,2.563,0,0,0,.745-1.673,2.992,2.992,0,0,0-2.844-3.2c-.815.024-.382-.766-.568-1.244-.1-.244-.472-.178-.747-.188-.268.017-.676-.057-.853.1-.15.145-.109.38-.116.571.026.691-.061.773-.769.745-.168.005-.362-.04-.42-.185-.146-.333.081-.825-.163-1.127-.227-.18-.733-.069-1.048-.1-.335-.015-.624.028-.612.442,0,4.229,0,8.485,0,12.729.007.2.068.353.26.4a9.526,9.526,0,0,0,1.1.021.622.622,0,0,0,.226-.045c.239-.116.184-.4.192-.659,0-.2-.027-.517.126-.623a1.433,1.433,0,0,1,.724-.077c.538.01.354.622.389.979-.012.465.363.436.766.427.283-.02.747.071.91-.12.172-.274.047-.652.1-.956.049-.474.614-.294.944-.363a3.242,3.242,0,0,0,2.734-2.129,3.219,3.219,0,0,0-.291-2.395ZM13.235,27.27c-.161-.064-.185-.273-.183-.438q0-3.218,0-6.433a.647.647,0,0,1,.089-.41c.216-.208.606-.1.887-.122h1.687a2.316,2.316,0,0,1,1.373.264,1.45,1.45,0,0,1,.438,1.778,1.348,1.348,0,0,1-1.033.753c-.282.048-.438-.123-.426-.4-.006-.511.009-1.029-.007-1.539a.313.313,0,0,0-.151-.279.457.457,0,0,0-.115-.036c-.351-.028-.717-.006-1.074-.011-.325-.011-.445.194-.426.5q0,2.679,0,5.356a.725.725,0,0,0,.062.362.392.392,0,0,0,.346.15c.3,0,.595,0,.892,0a.576.576,0,0,0,.346-.08.433.433,0,0,0,.124-.348c0-.384,0-.768,0-1.152.031-.263-.094-.663.15-.836a.939.939,0,0,1,.463-.043,1.455,1.455,0,0,1,1.378,1.223,1.483,1.483,0,0,1-.935,1.666,6.794,6.794,0,0,1-1.814.111H13.867a2.321,2.321,0,0,1-.616-.036Z" transform="translate(-1.486 -9.208)" fill="#ffe431"/>
          <path id="Path_10503" data-name="Path 10503" d="M20.092,23.761a2.761,2.761,0,0,0-.724-.778c-.224-.157-.258-.315-.044-.527a2.563,2.563,0,0,0,.745-1.673,2.992,2.992,0,0,0-2.844-3.2c-.815.024-.382-.766-.568-1.244-.1-.244-.472-.178-.747-.188-.268.017-.676-.057-.853.1-.15.145-.109.38-.116.571.026.691-.061.773-.769.745-.168.005-.362-.04-.42-.185-.146-.333.081-.825-.163-1.127-.227-.18-.733-.069-1.048-.1-.336-.015-.624.028-.612.442,0,4.229,0,8.485,0,12.729.007.2.068.353.26.4a9.333,9.333,0,0,0,1.1.022.626.626,0,0,0,.226-.045c.239-.116.184-.4.192-.659,0-.2-.027-.517.126-.623a1.433,1.433,0,0,1,.724-.077c.538.01.353.622.389.979-.012.465.363.436.766.427.283-.02.746.071.91-.12.172-.274.047-.652.1-.956.049-.474.614-.294.944-.363a3.242,3.242,0,0,0,2.734-2.129,3.219,3.219,0,0,0-.291-2.395Zm-6.215,2.868c-.161-.064-.185-.273-.183-.438q0-3.218,0-6.433a.647.647,0,0,1,.089-.41c.216-.208.606-.1.887-.122h1.687a2.309,2.309,0,0,1,1.373.264,1.45,1.45,0,0,1,.438,1.778,1.348,1.348,0,0,1-1.033.753c-.282.048-.438-.123-.426-.4-.006-.511.009-1.029-.007-1.539a.313.313,0,0,0-.151-.279.458.458,0,0,0-.115-.036c-.351-.028-.717-.006-1.074-.011-.325-.011-.445.194-.426.5q0,2.679,0,5.356a.725.725,0,0,0,.062.362.392.392,0,0,0,.346.15c.3,0,.595,0,.892,0a.576.576,0,0,0,.346-.08.433.433,0,0,0,.124-.348c0-.384,0-.768,0-1.152.031-.263-.094-.663.15-.836a.939.939,0,0,1,.463-.043A1.455,1.455,0,0,1,18.7,24.893a1.483,1.483,0,0,1-.935,1.666,6.794,6.794,0,0,1-1.814.111H14.509a2.321,2.321,0,0,1-.616-.036Z" transform="translate(-1.567 -9.128)" fill="#e47900"/>
          <g id="Group_17557" data-name="Group 17557" transform="translate(1.01 -7.109)" opacity="0.4" style="mix-blend-mode: soft-light;isolation: isolate">
            <g id="Group_17556" data-name="Group 17556" transform="translate(0 0)">
              <g id="Group_17555" data-name="Group 17555" clip-path="url(#clip-path-3)">
                <g id="Group_17554" data-name="Group 17554" transform="translate(0 0)">
                  <g id="Group_17553" data-name="Group 17553" clip-path="url(#clip-path-3)">
                    <path id="Path_10504" data-name="Path 10504" d="M31.106,12.066c-.16,6.676-6.975,12.1-15.224,12.109s-14.8-5.39-14.639-12.066S8.219.012,16.466,0s14.8,5.39,14.64,12.066" transform="translate(-1.241 0)" fill="#fffff6"/>
                  </g>
                </g>
              </g>
            </g>
          </g>
          <path id="Path_10505" data-name="Path 10505" d="M14.527,10.906c-6.7-.024-12.212,4.871-12.308,10.937s5.258,11,11.96,11.024S26.389,28,26.485,21.93s-5.258-11-11.959-11.024m-.338,21.255C7.972,32.138,3,27.56,3.094,21.935S8.3,11.767,14.512,11.791s11.184,4.6,11.1,10.226-5.2,10.167-11.419,10.144" transform="translate(-0.353 -8.473)" fill="#e47900"/>
          <path id="Path_10506" data-name="Path 10506" d="M14.536,10.217C7.8,10.194,2.26,14.933,2.161,21.161s5.283,11.3,12.019,11.318,12.277-5.006,12.375-11.234-5.283-11-12.018-11.024M14.2,31.3C7.982,31.278,3.015,26.7,3.1,21.074S8.3,10.9,14.521,10.926s11.185,4.6,11.1,10.227S20.417,31.32,14.2,31.3" transform="translate(-0.345 -8.387)" fill="#f8bc22"/>
          <path id="Path_10507" data-name="Path 10507" d="M14.527,10.524C7.825,10.5,2.315,15.395,2.219,21.461s5.258,11.287,11.96,11.314S26.389,27.61,26.489,21.546s-5.258-11-11.959-11.024M14.192,32.11c-6.22-.021-11.188-4.6-11.1-10.226S8.3,11.718,14.513,11.741s11.184,4.6,11.1,10.226-5.2,10.167-11.419,10.144" transform="translate(-0.353 -8.425)" fill="#e47900"/>
        </g>
      </g>
    </g>
    <rect id="Rectangle_7582" data-name="Rectangle 7582" width="32" height="32" transform="translate(21874 21293)" fill="none"/>
  </g>
</svg>
