<svg xmlns="http://www.w3.org/2000/svg" width="101.572" height="40" viewBox="0 0 101.572 40">
  <g id="Group_16206" data-name="Group 16206" transform="translate(22085.617 -6604)">
    <rect id="Rectangle_3337" data-name="Rectangle 3337" width="101.572" height="40" transform="translate(-22085.617 6604)" fill="none"/>
    <g id="EB_360_Final_Logo" data-name="EB 360 Final Logo" transform="translate(-22085.617 6604)">
      <g id="Group_16201" data-name="Group 16201" transform="translate(20.008 0)">
        <g id="Group_16199" data-name="Group 16199" transform="translate(0 0)">
          <path id="Path_9563" data-name="Path 9563" d="M161.771,209.836a.91.91,0,1,0,.1-1.816.91.91,0,0,0-.1,1.816" transform="translate(-155.823 -199.675)" fill="#19b2dc"/>
          <path id="Path_9564" data-name="Path 9564" d="M143.13,188.434a5.368,5.368,0,0,0,.977,3.058,3.738,3.738,0,0,0,2.655,1.48,8.3,8.3,0,0,0-1.054-.762c-2.2-1.652-2.52-4.716-.607-7.15a4.427,4.427,0,0,1,3.474-1.466c3.348,0,6.1,3.932,9.278,3.932,2.9,0,3.559-4.158,1.131-5.67-1.246-.773-2.5-.722-2.947-1.389,1.269-.713,10.412,2.351,2.394,10.464-1.827,1.85-4.656,2.211-6.532,5.87a11,11,0,0,0-.8,2.322H148.07c0-1.017-.587-2.52-1.512-2.52h-.5c-.936,0-2.646,1.575.023,4.212,2.047,2.025,5.974,3.25,9.255,3.25a12.012,12.012,0,0,0,10.724-7.125,12.8,12.8,0,0,0-2.629-14.581l-1.681-1.346a12.42,12.42,0,0,0-14.753.6c-2,1.692-3.863,3.88-3.863,6.824" transform="translate(-143.13 -178.878)" fill="#19b2dc"/>
        </g>
        <g id="Group_16200" data-name="Group 16200" transform="translate(27.187 4.402)">
          <path id="Path_9565" data-name="Path 9565" d="M243.17,210.638a5.433,5.433,0,0,1-.959-.086,4.269,4.269,0,0,1-.893-.261,4.63,4.63,0,0,1-2.408-1.919,6.07,6.07,0,0,1-.839-2.944h1.592a8.281,8.281,0,0,0,.152,1.1,3.656,3.656,0,0,0,1.647,2.257,3.408,3.408,0,0,0,1.712.435,3.351,3.351,0,0,0,1.406-.283,3.243,3.243,0,0,0,1.744-1.919,4.278,4.278,0,0,0,.229-1.417,3.181,3.181,0,0,0-.206-1.134,3.576,3.576,0,0,0-1.417-1.753,3.726,3.726,0,0,0-1.057-.47,4.711,4.711,0,0,0-.916-.132c-.321-.014-.624-.023-.916-.023v-1.375h.544a4.235,4.235,0,0,0,1.111-.14,2.778,2.778,0,0,0,.936-.447,2.194,2.194,0,0,0,.653-.773,2.681,2.681,0,0,0-.435-2.889,2.353,2.353,0,0,0-1.767-.7,2.156,2.156,0,0,0-1.037.241,2.335,2.335,0,0,0-.753.633,2.751,2.751,0,0,0-.458.893,3.459,3.459,0,0,0-.152,1.025h-1.549a5.12,5.12,0,0,1,.306-1.647,4.072,4.072,0,0,1,.8-1.34,3.859,3.859,0,0,1,1.231-.9,3.8,3.8,0,0,1,1.635-.338,3.944,3.944,0,0,1,2.846,1.177,3.848,3.848,0,0,1,.828,1.286,4.254,4.254,0,0,1,.295,1.592,3.174,3.174,0,0,1-.424,1.69,4.569,4.569,0,0,1-1.188,1.254,5.27,5.27,0,0,1,1.941,1.732,4.286,4.286,0,0,1,.742,2.454,5.342,5.342,0,0,1-.369,2,5,5,0,0,1-1.037,1.624,4.886,4.886,0,0,1-3.565,1.5Z" transform="translate(-238.07 -194.307)" fill="#19b2dc"/>
          <path id="Path_9566" data-name="Path 9566" d="M286.9,202.835a5.518,5.518,0,0,0-1.123-1.787,5.2,5.2,0,0,0-1.712-1.2,5.586,5.586,0,0,0-2.2-.435l-.836,1.349c-.029.04-.089.135-.183.289a.01.01,0,0,1,0,.006c.123-.037.235-.069.332-.094a2.5,2.5,0,0,1,.633-.066,3.691,3.691,0,0,1,1.592.338,3.827,3.827,0,0,1,1.231.9,4.128,4.128,0,0,1,.8,1.32,4.441,4.441,0,0,1,.283,1.581,4.539,4.539,0,0,1-.283,1.592,4.077,4.077,0,0,1-.8,1.329,3.858,3.858,0,0,1-1.231.9,3.683,3.683,0,0,1-1.592.338,3.548,3.548,0,0,1-1.558-.338,4.015,4.015,0,0,1-2.039-2.214,4.358,4.358,0,0,1-.283-1.569,4.653,4.653,0,0,1,.326-1.721c.029-.057.112-.206.252-.447s.306-.524.5-.85.407-.673.633-1.037.438-.7.644-1.025.381-.6.533-.828.252-.378.295-.435l2.944-4.47h-1.81l-3.989,5.931c-.261.378-.51.747-.742,1.111a10.4,10.4,0,0,0-.621,1.111,6.471,6.471,0,0,0-.435,1.188,5.179,5.179,0,0,0-.163,1.32,6.176,6.176,0,0,0,.4,2.245,5.5,5.5,0,0,0,1.122,1.81,5.275,5.275,0,0,0,1.733,1.211,5.855,5.855,0,0,0,4.459.011,5.266,5.266,0,0,0,1.733-1.2,5.639,5.639,0,0,0,1.145-1.787,5.85,5.85,0,0,0,.415-2.2A6.022,6.022,0,0,0,286.9,202.835Z" transform="translate(-265.352 -194.264)" fill="#19b2dc"/>
          <path id="Path_9567" data-name="Path 9567" d="M328.545,198.614l-.538.868c-.029.04-.089.135-.183.289l-.129.212h0l-.627,1.008v3.356c0,.232-.009.49-.023.773s-.043.567-.086.85a7.692,7.692,0,0,1-.175.828,2.445,2.445,0,0,1-.306.707,3.332,3.332,0,0,1-1.309,1.254,3.774,3.774,0,0,1-1.787.424,3.908,3.908,0,0,1-1.81-.424,3.271,3.271,0,0,1-1.329-1.254,2.893,2.893,0,0,1-.284-.707,7.7,7.7,0,0,1-.175-.828c-.043-.284-.077-.567-.1-.85s-.032-.541-.032-.773v-4.012c0-.232.011-.484.032-.753a6.555,6.555,0,0,1,.12-.808,7.628,7.628,0,0,1,.206-.773,2.986,2.986,0,0,1,.315-.676,3.481,3.481,0,0,1,1.329-1.188,3.663,3.663,0,0,1,1.721-.447,3.561,3.561,0,0,1,1.69.447,3.813,3.813,0,0,1,.432.269l-.888.513,2.809,1.621h.026a.053.053,0,0,1,.006.02l.49.284v-3.849l-1.017.587a4.952,4.952,0,0,0-.825-.6,5.359,5.359,0,0,0-2.726-.73,5.439,5.439,0,0,0-2.769.73,4.862,4.862,0,0,0-1.942,2.082,4.723,4.723,0,0,0-.481,1.406,8.7,8.7,0,0,0-.132,1.472v4.645a10.175,10.175,0,0,0,.175,1.833,5.332,5.332,0,0,0,.633,1.744,4.673,4.673,0,0,0,1.907,1.833,5.823,5.823,0,0,0,5.189,0,4.522,4.522,0,0,0,1.887-1.833,5.333,5.333,0,0,0,.633-1.744,10.127,10.127,0,0,0,.175-1.833V199.94A7.835,7.835,0,0,0,328.545,198.614Z" transform="translate(-295.147 -194.25)" fill="#19b2dc"/>
        </g>
      </g>
      <g id="Group_16203" data-name="Group 16203" transform="translate(0 29.221)">
        <g id="Group_16202" data-name="Group 16202" transform="translate(0)">
          <path id="Path_9568" data-name="Path 9568" d="M74.394,290.12h4.625v.985H73.26V283.17h5.6v.985H74.391v5.965Zm-.1-3.525h4.081v.962H74.291Z" transform="translate(-73.26 -282.526)" fill="#203a6f"/>
          <path id="Path_9569" data-name="Path 9569" d="M99.23,289.92v-8.41h1.088v8.41Z" transform="translate(-91.793 -281.341)" fill="#203a6f"/>
          <path id="Path_9570" data-name="Path 9570" d="M111.553,295.834a3.481,3.481,0,0,1-1.7-.4,2.862,2.862,0,0,1-1.134-1.088,3.09,3.09,0,0,1-.4-1.586,3.171,3.171,0,0,1,.392-1.586,2.813,2.813,0,0,1,1.077-1.082,3.073,3.073,0,0,1,1.546-.392,3.017,3.017,0,0,1,1.541.387,2.724,2.724,0,0,1,1.048,1.082,3.362,3.362,0,0,1,.381,1.626c0,.046,0,.1-.006.158a1.459,1.459,0,0,1-.017.169h-5.109v-.782h4.545l-.441.272a2,2,0,0,0-.238-1.031,1.807,1.807,0,0,0-.684-.707,2.132,2.132,0,0,0-2.022,0,1.824,1.824,0,0,0-.693.713,2.164,2.164,0,0,0-.249,1.048v.18a2.052,2.052,0,0,0,.278,1.071,1.89,1.89,0,0,0,.776.73,2.421,2.421,0,0,0,1.145.261,2.5,2.5,0,0,0,.968-.18,2.106,2.106,0,0,0,.765-.544l.6.7a2.624,2.624,0,0,1-1.014.725A3.454,3.454,0,0,1,111.553,295.834Z" transform="translate(-98.28 -287.186)" fill="#203a6f"/>
          <path id="Path_9571" data-name="Path 9571" d="M134.49,297.964v-8.207h1.042v1.621l-.069,1.395.115,1.395v3.8Zm3.187-2.131a2.737,2.737,0,0,1-1.366-.346,2.487,2.487,0,0,1-.985-1.025,3.527,3.527,0,0,1-.369-1.7,3.641,3.641,0,0,1,.358-1.7,2.4,2.4,0,0,1,.974-1.019,2.835,2.835,0,0,1,1.389-.341,3.1,3.1,0,0,1,1.564.387,2.843,2.843,0,0,1,1.077,1.071,3.441,3.441,0,0,1,0,3.213,2.838,2.838,0,0,1-1.077,1.077A3.111,3.111,0,0,1,137.677,295.834Zm-.092-.954a2.05,2.05,0,0,0,1.037-.261,1.881,1.881,0,0,0,.724-.742,2.268,2.268,0,0,0,.266-1.117,2.238,2.238,0,0,0-.266-1.117,1.889,1.889,0,0,0-.724-.73,2.057,2.057,0,0,0-1.037-.261,2.029,2.029,0,0,0-1.025.261,1.908,1.908,0,0,0-.725.73,2.23,2.23,0,0,0-.266,1.117,2.268,2.268,0,0,0,.266,1.117,1.863,1.863,0,0,0,.725.742A2.029,2.029,0,0,0,137.586,294.88Z" transform="translate(-116.956 -287.186)" fill="#203a6f"/>
          <path id="Path_9572" data-name="Path 9572" d="M164.7,283.862a2.837,2.837,0,0,1,1.3.283,2.026,2.026,0,0,1,.879.862,3.016,3.016,0,0,1,.318,1.463v3.456H166.1v-3.333a1.828,1.828,0,0,0-.424-1.314,1.58,1.58,0,0,0-1.2-.441,2.12,2.12,0,0,0-1.008.226,1.564,1.564,0,0,0-.664.67,2.35,2.35,0,0,0-.232,1.1v3.1H161.49v-8.41h1.088v4.023l-.215-.43a2.1,2.1,0,0,1,.908-.919A2.947,2.947,0,0,1,164.7,283.862Z" transform="translate(-136.224 -281.348)" fill="#203a6f"/>
          <path id="Path_9573" data-name="Path 9573" d="M189.042,295.834a2.835,2.835,0,0,1-1.174-.226,1.8,1.8,0,0,1-.776-.63,1.6,1.6,0,0,1-.272-.913,1.73,1.73,0,0,1,.232-.885,1.619,1.619,0,0,1,.759-.636,3.535,3.535,0,0,1,1.423-.238h1.9v.782H189.28a1.63,1.63,0,0,0-1.1.272.878.878,0,0,0-.283.659.842.842,0,0,0,.352.707,1.58,1.58,0,0,0,.974.266,2.075,2.075,0,0,0,1.071-.272,1.555,1.555,0,0,0,.664-.793l.215.747a1.691,1.691,0,0,1-.759.845A2.693,2.693,0,0,1,189.042,295.834Zm1.973-.069V294.5l-.057-.238v-2.165a1.4,1.4,0,0,0-.4-1.071,1.708,1.708,0,0,0-1.208-.381,3.174,3.174,0,0,0-1.042.175,2.725,2.725,0,0,0-.862.47l-.452-.816a3.269,3.269,0,0,1,1.117-.573,4.691,4.691,0,0,1,1.366-.2,2.752,2.752,0,0,1,1.9.6,2.344,2.344,0,0,1,.667,1.836v3.628Z" transform="translate(-154.301 -287.186)" fill="#203a6f"/>
          <path id="Path_9574" data-name="Path 9574" d="M215.327,289.7a2.837,2.837,0,0,1,1.3.283,2.026,2.026,0,0,1,.879.862,3.017,3.017,0,0,1,.318,1.463v3.456h-1.088v-3.333a1.828,1.828,0,0,0-.424-1.314,1.58,1.58,0,0,0-1.2-.441,2.12,2.12,0,0,0-1.008.226,1.564,1.564,0,0,0-.664.67,2.35,2.35,0,0,0-.232,1.1v3.1H212.12v-6.011h1.042v1.621l-.169-.43a2.1,2.1,0,0,1,.908-.919A2.971,2.971,0,0,1,215.327,289.7Z" transform="translate(-172.356 -287.186)" fill="#203a6f"/>
          <path id="Path_9575" data-name="Path 9575" d="M236.06,287.521v-.9h3.831v.9Zm2.924,5.18a1.933,1.933,0,0,1-1.406-.487,1.862,1.862,0,0,1-.5-1.395v-5.51h1.088v5.464a1.044,1.044,0,0,0,.243.747.905.905,0,0,0,.7.261,1.282,1.282,0,0,0,.85-.284l.341.782a1.588,1.588,0,0,1-.6.318A2.492,2.492,0,0,1,238.984,292.7Z" transform="translate(-189.44 -284.053)" fill="#203a6f"/>
          <path id="Path_9576" data-name="Path 9576" d="M266.66,291.105V283.17h3.559a3.473,3.473,0,0,1,2.108.55,1.776,1.776,0,0,1,.736,1.5,1.957,1.957,0,0,1-.289,1.088,1.926,1.926,0,0,1-.776.682,2.379,2.379,0,0,1-1.054.238l.2-.341a2.9,2.9,0,0,1,1.2.238,1.932,1.932,0,0,1,.828.7,2.014,2.014,0,0,1,.306,1.14,1.842,1.842,0,0,1-.765,1.581,3.841,3.841,0,0,1-2.274.561H266.66Zm1.134-.919H270.4a2.693,2.693,0,0,0,1.44-.318,1.257,1.257,0,0,0,0-2,2.693,2.693,0,0,0-1.44-.318h-2.709v-.919h2.426a2.392,2.392,0,0,0,1.337-.318,1.191,1.191,0,0,0,0-1.9,2.4,2.4,0,0,0-1.337-.318h-2.322Z" transform="translate(-211.278 -282.526)" fill="#203a6f"/>
          <path id="Path_9577" data-name="Path 9577" d="M297.353,295.834a3.481,3.481,0,0,1-1.7-.4,2.862,2.862,0,0,1-1.134-1.088,3.091,3.091,0,0,1-.4-1.586,3.171,3.171,0,0,1,.392-1.586,2.813,2.813,0,0,1,1.077-1.082,3.073,3.073,0,0,1,1.546-.392,3.018,3.018,0,0,1,1.541.387,2.724,2.724,0,0,1,1.048,1.082,3.361,3.361,0,0,1,.381,1.626c0,.046,0,.1-.006.158a1.474,1.474,0,0,1-.017.169h-5.109v-.782h4.545l-.441.272a2,2,0,0,0-.238-1.031,1.808,1.808,0,0,0-.684-.707,2.132,2.132,0,0,0-2.022,0,1.824,1.824,0,0,0-.693.713,2.164,2.164,0,0,0-.249,1.048v.18a2.052,2.052,0,0,0,.278,1.071,1.891,1.891,0,0,0,.776.73,2.421,2.421,0,0,0,1.145.261,2.5,2.5,0,0,0,.968-.18,2.106,2.106,0,0,0,.765-.544l.6.7a2.624,2.624,0,0,1-1.014.725A3.454,3.454,0,0,1,297.353,295.834Z" transform="translate(-230.874 -287.186)" fill="#203a6f"/>
          <path id="Path_9578" data-name="Path 9578" d="M323.5,289.7a2.837,2.837,0,0,1,1.3.283,2.026,2.026,0,0,1,.879.862,3.016,3.016,0,0,1,.318,1.463v3.456H324.9v-3.333a1.828,1.828,0,0,0-.424-1.314,1.58,1.58,0,0,0-1.2-.441,2.12,2.12,0,0,0-1.008.226,1.564,1.564,0,0,0-.664.67,2.35,2.35,0,0,0-.232,1.1v3.1H320.29v-6.011h1.042v1.621l-.169-.43a2.1,2.1,0,0,1,.908-.919A2.979,2.979,0,0,1,323.5,289.7Z" transform="translate(-249.55 -287.186)" fill="#203a6f"/>
          <path id="Path_9579" data-name="Path 9579" d="M348.533,295.834a3.482,3.482,0,0,1-1.7-.4,2.862,2.862,0,0,1-1.134-1.088,3.09,3.09,0,0,1-.4-1.586,3.171,3.171,0,0,1,.392-1.586,2.813,2.813,0,0,1,1.077-1.082,3.073,3.073,0,0,1,1.546-.392,3.018,3.018,0,0,1,1.541.387,2.724,2.724,0,0,1,1.048,1.082,3.362,3.362,0,0,1,.381,1.626c0,.046,0,.1-.006.158a1.467,1.467,0,0,1-.017.169H346.15v-.782H350.7l-.441.272a2,2,0,0,0-.238-1.031,1.807,1.807,0,0,0-.684-.707,2.132,2.132,0,0,0-2.022,0,1.824,1.824,0,0,0-.693.713,2.164,2.164,0,0,0-.249,1.048v.18a2.052,2.052,0,0,0,.278,1.071,1.891,1.891,0,0,0,.776.73,2.421,2.421,0,0,0,1.145.261,2.5,2.5,0,0,0,.968-.18,2.106,2.106,0,0,0,.765-.544l.6.7a2.624,2.624,0,0,1-1.014.725A3.429,3.429,0,0,1,348.533,295.834Z" transform="translate(-267.398 -287.186)" fill="#203a6f"/>
          <path id="Path_9580" data-name="Path 9580" d="M368.46,284.388v-.9h3.832v.9Zm1.022,5.112v-6.541a1.933,1.933,0,0,1,.515-1.412,1.958,1.958,0,0,1,1.469-.527,2.632,2.632,0,0,1,.676.086,1.492,1.492,0,0,1,.55.266l-.329.828a1.23,1.23,0,0,0-.387-.209,1.4,1.4,0,0,0-.452-.074.943.943,0,0,0-.724.266,1.116,1.116,0,0,0-.249.788v.8l.023.5V289.5Zm4.387-7.165a.731.731,0,0,1-.527-.2.671.671,0,0,1-.209-.5.678.678,0,0,1,.209-.51.793.793,0,0,1,1.054-.006.649.649,0,0,1,.209.492.706.706,0,0,1-.736.725Zm-.544,7.165v-6.008h1.088V289.5Z" transform="translate(-283.926 -280.92)" fill="#203a6f"/>
          <path id="Path_9581" data-name="Path 9581" d="M393.48,287.521v-.9h3.832v.9Zm2.924,5.18a1.933,1.933,0,0,1-1.406-.487,1.862,1.862,0,0,1-.5-1.395v-5.51h1.088v5.464a1.044,1.044,0,0,0,.243.747.905.905,0,0,0,.7.261,1.282,1.282,0,0,0,.85-.284l.341.782a1.587,1.587,0,0,1-.6.318A2.492,2.492,0,0,1,396.4,292.7Z" transform="translate(-301.781 -284.053)" fill="#203a6f"/>
          <path id="Path_9582" data-name="Path 9582" d="M412.7,295.848a4.942,4.942,0,0,1-1.423-.2,3.418,3.418,0,0,1-1.06-.5l.452-.862a3.646,3.646,0,0,0,.954.441,3.8,3.8,0,0,0,1.157.18,2.1,2.1,0,0,0,1.094-.215.677.677,0,0,0,.335-.6.53.53,0,0,0-.2-.441,1.376,1.376,0,0,0-.538-.238c-.223-.052-.47-.1-.742-.14s-.544-.095-.816-.158a3.167,3.167,0,0,1-.747-.272,1.441,1.441,0,0,1-.544-.487,1.521,1.521,0,0,1-.2-.833,1.542,1.542,0,0,1,.306-.951,1.944,1.944,0,0,1,.868-.63,3.6,3.6,0,0,1,1.332-.22,5.435,5.435,0,0,1,1.2.14,2.932,2.932,0,0,1,.991.4l-.464.862a2.6,2.6,0,0,0-.85-.375,3.889,3.889,0,0,0-.885-.1,1.96,1.96,0,0,0-1.065.232.691.691,0,0,0-.352.6.559.559,0,0,0,.209.47,1.525,1.525,0,0,0,.544.255,6.487,6.487,0,0,0,.742.152c.272.04.544.094.816.158a3.2,3.2,0,0,1,.742.266,1.455,1.455,0,0,1,.544.475,1.414,1.414,0,0,1,.209.816,1.464,1.464,0,0,1-.318.942,2.074,2.074,0,0,1-.9.619A3.893,3.893,0,0,1,412.7,295.848Z" transform="translate(-313.728 -287.2)" fill="#203a6f"/>
        </g>
      </g>
    </g>
  </g>
</svg>
