<svg
                        xmlns="http://www.w3.org/2000/svg"
                        width="42"
                        height="42"
                        viewBox="0 0 42 42"
                      >
                        <g
                          id="Group_17702"
                          data-name="Group 17702"
                          transform="translate(-992 -257)"
                        >
                          <rect
                            id="Rectangle_3902"
                            data-name="Rectangle 3902"
                            width="42"
                            height="42"
                            transform="translate(992 257)"
                            fill="none"
                          />
                          <g
                            id="Group_7987"
                            data-name="Group 7987"
                            transform="translate(847 -111)"
                          >
                            <path
                              id="Path_5781"
                              data-name="Path 5781"
                              d="M30.251,296.4v-11.25a51.164,51.164,0,0,1-14.464-4.286,51.164,51.164,0,0,1-14.464,4.286V296.4c0,13.393,14.464,15.536,14.464,15.536S30.251,309.789,30.251,296.4Z"
                              transform="translate(150.214 92.675)"
                              fill="#ff6b6b"
                            />
                            <path
                              id="Path_5782"
                              data-name="Path 5782"
                              d="M22.183,293.142a9.107,9.107,0,1,1-9.107-9.107,9.107,9.107,0,0,1,9.107,9.107Z"
                              transform="translate(152.925 95.929)"
                              fill="#dbe9ee"
                            />
                            <path
                              id="Path_5783"
                              data-name="Path 5783"
                              d="M9.3,286.152v3.214H6.085v3.214H9.3v3.214h3.214v-3.214h3.214v-3.214H12.514v-3.214Z"
                              transform="translate(155.093 98.098)"
                              fill="#ff6b6b"
                            />
                            <path
                              id="Path_5784"
                              data-name="Path 5784"
                              d="M15.817,280.653a50.723,50.723,0,0,1-14.3,4.231.536.536,0,0,0-.462.535v1.605a.536.536,0,1,0,1.071,0V285.88a52.174,52.174,0,0,0,13.928-4.152,50.479,50.479,0,0,0,13.927,4.152v10.785A13.71,13.71,0,0,1,23.01,309a20.662,20.662,0,0,1-6.952,2.653A20.643,20.643,0,0,1,9.107,309,13.711,13.711,0,0,1,2.13,296.665v-7.5a.536.536,0,1,0-1.071,0v7.5a14.907,14.907,0,0,0,7.491,13.248,22.082,22.082,0,0,0,7.43,2.82.523.523,0,0,0,.159,0,22.082,22.082,0,0,0,7.43-2.82,14.907,14.907,0,0,0,7.491-13.248V285.419a.536.536,0,0,0-.462-.535,50.723,50.723,0,0,1-14.3-4.231.541.541,0,0,0-.483,0Zm.242,6.371a9.643,9.643,0,1,0,7.051,16.222.536.536,0,1,0-.783-.732,8.549,8.549,0,1,1,1.3-1.814.536.536,0,0,0,.946.505,9.649,9.649,0,0,0-8.511-14.181Zm-2.144,4.82v2.682H11.238a.536.536,0,0,0-.538.534v3.215a.536.536,0,0,0,.538.534h2.676v2.682a.536.536,0,0,0,.539.534h3.21a.536.536,0,0,0,.538-.534v-2.682h2.677a.536.536,0,0,0,.538-.534V295.06a.536.536,0,0,0-.538-.534H18.2v-2.682a.536.536,0,0,0-.538-.534H14.425a.539.539,0,0,0-.511.534Zm1.072.538H17.13v2.677a.536.536,0,0,0,.534.534h2.682v2.144H17.663a.536.536,0,0,0-.534.538v2.677H14.987v-2.677a.536.536,0,0,0-.534-.538H11.772v-2.144h2.682a.536.536,0,0,0,.534-.534Z"
                              transform="translate(149.941 92.404)"
                            />
                          </g>
                        </g>
                      </svg>