<svg
                        xmlns="http://www.w3.org/2000/svg"
                        width="42"
                        height="42"
                        viewBox="0 0 42 42"
                      >
                        <g
                          id="Group_17752"
                          data-name="Group 17752"
                          transform="translate(-842 -283)"
                        >
                          <g id="Group_17752-2" data-name="Group 17752">
                            <rect
                              id="Rectangle_3902"
                              data-name="Rectangle 3902"
                              width="42"
                              height="42"
                              transform="translate(842 283)"
                              fill="none"
                            />
                          </g>
                          <g
                            id="Group_7511"
                            data-name="Group 7511"
                            transform="translate(391.945 -663.518)"
                          >
                            <g
                              id="Elder_couple"
                              transform="translate(452.286 950.285)"
                              opacity="0.9"
                            >
                              <path
                                id="Path_5350"
                                data-name="Path 5350"
                                d="M254.078,138.621c.7,2.308,1.746,5.08,1.746,5.08.453,1.247.9,2.248,1.192,2.861a.728.728,0,0,0,.987.337l2.045-1.033a.728.728,0,0,0,.336-.948,80.97,80.97,0,0,1-3-8.7,4.847,4.847,0,0,0-3.678-3.651l-.117-.029-6.439-.092a4.588,4.588,0,0,0-3.412,2.58,4.73,4.73,0,0,0-.383,1.456l-1.161,11.042h3.651l.333-4.934h8.194l-.236-3.211Z"
                                transform="translate(-224.63 -124.179)"
                                fill="#4cb385"
                              />
                              <path
                                id="Path_5351"
                                data-name="Path 5351"
                                d="M242.521,271.534a20.546,20.546,0,0,0,3.611-1.234l-.3,4.429h-3.652Z"
                                transform="translate(-224.624 -251.385)"
                                fill="#218b6a"
                              />
                              <path
                                id="Path_5352"
                                data-name="Path 5352"
                                d="M319.8,170.215l-2.045,1.032a.728.728,0,0,1-.986-.337c-.292-.613-.739-1.615-1.193-2.861,0,0-1.051-2.773-1.747-5.081l.056.755.236,3.21-.019,0h-7.157a28.438,28.438,0,0,0,9.382-8.1,6.183,6.183,0,0,1,.8,1.733,80.97,80.97,0,0,0,3,8.7A.729.729,0,0,1,319.8,170.215Z"
                                transform="translate(-284.382 -148.526)"
                                fill="#218b6a"
                              />
                              <path
                                id="Path_5353"
                                data-name="Path 5353"
                                d="M289.87,263.734l1.1,14.979a.572.572,0,0,1-.57.614h-2.8a.572.572,0,0,1-.571-.537l-.55-9.084a.656.656,0,0,0-.655-.616h0a.656.656,0,0,0-.655.616l-.549,9.084a.572.572,0,0,1-.571.537h-2.808a.572.572,0,0,1-.571-.61l1.011-14.981Z"
                                transform="translate(-260.132 -245.326)"
                                fill="#007dc2"
                              />
                              <path
                                id="Path_5354"
                                data-name="Path 5354"
                                d="M280.885,401.268a17.125,17.125,0,0,0,4.008-1.258l-.273,4.528a.573.573,0,0,1-.571.538h-2.809a.572.572,0,0,1-.57-.611Z"
                                transform="translate(-260.134 -371.075)"
                                fill="#1a4e9a"
                              />
                              <path
                                id="Path_5355"
                                data-name="Path 5355"
                                d="M362.384,351.685h-2.8a.572.572,0,0,1-.571-.538l-.334-5.515a12.773,12.773,0,0,0,3.624-3.482l.655,8.921a.572.572,0,0,1-.57.614Z"
                                transform="translate(-332.116 -317.685)"
                                fill="#1a4e9a"
                              />
                              <path
                                id="Path_5356"
                                data-name="Path 5356"
                                d="M327.543,148.217a3.4,3.4,0,0,1-1.641-.42c-.034.311-.069.721-.069.821a1.74,1.74,0,0,0,3.48,0c0-.091-.058-.492-.113-.831A3.4,3.4,0,0,1,327.543,148.217Z"
                                transform="translate(-301.811 -138.336)"
                                fill="#efb8ae"
                              />
                              <path
                                id="Path_5357"
                                data-name="Path 5357"
                                d="M310.609,102.831a3.413,3.413,0,1,1-6.785-.531h6.744A3.43,3.43,0,0,1,310.609,102.831Z"
                                transform="translate(-281.465 -96.362)"
                                fill="#f8ded9"
                              />
                              <path
                                id="Path_5358"
                                data-name="Path 5358"
                                d="M310.608,103c0-.054.005-.109.005-.164a3.432,3.432,0,0,0-.041-.53h-6.743a3.449,3.449,0,0,0-.041.531c0,.055,0,.109.005.164Z"
                                transform="translate(-281.468 -96.364)"
                                fill="#efb5aa"
                              />
                              <path
                                id="Path_5359"
                                data-name="Path 5359"
                                d="M306.951,31.434h2.012a2.376,2.376,0,0,1,2.376,2.376v2.634h-6.764V33.811A2.376,2.376,0,0,1,306.951,31.434Z"
                                transform="translate(-282.195 -30.971)"
                                fill="#ee7754"
                              />
                              <path
                                id="Path_5360"
                                data-name="Path 5360"
                                d="M311.34,33.811a2.376,2.376,0,0,0-2.376-2.376h-.143c-.378,1.1-1.567,3.822-4.245,4.72v.291h6.764Z"
                                transform="translate(-282.195 -30.971)"
                                fill="#d75234"
                              />
                              <path
                                id="Path_5361"
                                data-name="Path 5361"
                                d="M121.983,376.677h-3.4l.251,6.411a.475.475,0,0,0,.474.456h4.972a.475.475,0,0,0,.474-.456l.251-6.411Z"
                                transform="translate(-110.573 -349.545)"
                                fill="#f8ded9"
                              />
                              <path
                                id="Path_5362"
                                data-name="Path 5362"
                                d="M118.628,377.756h6.338l.042-1.079h-6.423Z"
                                transform="translate(-110.573 -349.545)"
                                fill="#ea9f91"
                              />
                              <path
                                id="Path_5363"
                                data-name="Path 5363"
                                d="M40.746,166.11,40,175.883H50.281l-.4-3.834v-.044h1.675c2.771-9.153-1.371-11.549-3.474-12.365a8.276,8.276,0,0,0-5.625-.15l-.371.15a5.229,5.229,0,0,0-3.727,3.388,23.486,23.486,0,0,1-2.769,6.4.674.674,0,0,0,.377.992l1.727.537a.674.674,0,0,0,.77-.284,24.645,24.645,0,0,0,2.253-4.476Z"
                                transform="translate(-33.895 -148.75)"
                                fill="#ee7754"
                              />
                              <path
                                id="Path_5364"
                                data-name="Path 5364"
                                d="M104.11,280.3H93.825l.243-3.215c7.394.177,8.556-4.853,8.556-4.853l-.186,4.2,1.27,0v.038Z"
                                transform="translate(-87.725 -253.166)"
                                fill="#d75234"
                              />
                              <path
                                id="Path_5365"
                                data-name="Path 5365"
                                d="M143.053,179.179a3.41,3.41,0,0,1-3.365,0h0a1.74,1.74,0,1,0,3.366,0Z"
                                transform="translate(-129.991 -167.302)"
                                fill="#efb8ae"
                              />
                              <path
                                id="Path_5366"
                                data-name="Path 5366"
                                d="M124.221,127.907a1.988,1.988,0,0,1-1.523-.707.871.871,0,0,0-.864-.271,2,2,0,0,1-.885,0,.871.871,0,0,0-.864.271,1.992,1.992,0,0,1-2.1.621c0,.05,0,.1,0,.152a3.413,3.413,0,0,0,6.825,0c0-.051,0-.1,0-.152A1.992,1.992,0,0,1,124.221,127.907Z"
                                transform="translate(-110.013 -119.065)"
                                fill="#f8ded9"
                              />
                              <path
                                id="Path_5367"
                                data-name="Path 5367"
                                d="M124.413,133.926a2.452,2.452,0,0,1-1.877-.872.387.387,0,0,0-.3-.13.485.485,0,0,0-.108.012,2.476,2.476,0,0,1-1.09,0,.483.483,0,0,0-.107-.012.387.387,0,0,0-.3.13,2.446,2.446,0,0,1-2.444.8,3.4,3.4,0,0,0,.128.653,3.06,3.06,0,0,0,2.692-.951,3.1,3.1,0,0,0,1.151,0,3.06,3.06,0,0,0,2.692.951,3.4,3.4,0,0,0,.128-.653A2.444,2.444,0,0,1,124.413,133.926Z"
                                transform="translate(-110.206 -124.621)"
                                fill="#efb5aa"
                              />
                              <path
                                id="Path_5368"
                                data-name="Path 5368"
                                d="M107.53,77.2a2,2,0,0,0-.594.042.925.925,0,0,1-.895-.3,1.992,1.992,0,0,0-3,0,.925.925,0,0,1-.895.3,1.993,1.993,0,1,0,1.086,3.231.871.871,0,0,1,.864-.271,2,2,0,0,0,.885,0,.871.871,0,0,1,.864.271,1.993,1.993,0,1,0,1.68-3.273Z"
                                transform="translate(-93.165 -72.342)"
                                fill="#d0d7e7"
                              />
                              <path
                                id="Path_5369"
                                data-name="Path 5369"
                                d="M160.823,85.439a1.99,1.99,0,0,1-1.523-.708.871.871,0,0,0-.864-.271,2.016,2.016,0,0,1-.791.019,5.132,5.132,0,0,0,1.484-3.6,1.968,1.968,0,0,1,.362.322.926.926,0,0,0,.895.3,1.993,1.993,0,1,1,.437,3.938Z"
                                transform="translate(-146.615 -76.597)"
                                fill="#afbad5"
                              />
                              <path
                                id="Path_5370"
                                data-name="Path 5370"
                                d="M51.058,46.894a1.188,1.188,0,0,0-.027-.909,80.753,80.753,0,0,1-2.982-8.647,5.253,5.253,0,0,0-3.89-3.933,3.827,3.827,0,0,0,.265-2.034h1.068a.463.463,0,1,0,0-.927h-1.03V28.274a2.843,2.843,0,0,0-2.84-2.84H39.611a2.843,2.843,0,0,0-2.84,2.84v2.171h-1.03a.463.463,0,1,0,0,.927h1.007a3.815,3.815,0,0,0,.228,1.94,5.005,5.005,0,0,0-3.44,2.778,5.19,5.19,0,0,0-.422,1.6l-.148,1.41a6.41,6.41,0,0,0-3.3-2.951,3.848,3.848,0,0,0,.443-1.641,2.456,2.456,0,0,0-.85-4.672h0a2.473,2.473,0,0,0-.731.052.461.461,0,0,1-.445-.152,2.456,2.456,0,0,0-3.692,0,.461.461,0,0,1-.445.152,2.456,2.456,0,0,0-1.581,4.62,3.849,3.849,0,0,0,.379,1.515,5.611,5.611,0,0,0-3.872,3.657,22.932,22.932,0,0,1-2.719,6.283,1.127,1.127,0,0,0-.093.985,1.971,1.971,0,0,0-1.2,1.809v.714a.463.463,0,0,0,.927,0v-.714a1.04,1.04,0,0,1,1.026-1.037h.011a1.037,1.037,0,0,1,1.037,1.037v10.68a.463.463,0,1,0,.927,0V48.754a1.973,1.973,0,0,0-.075-.539,1.13,1.13,0,0,0,1.105-.52c.452-.716.859-1.431,1.221-2.138l-.54,6.974a.463.463,0,0,0,.462.5h1.467L22.655,59a.935.935,0,0,0,.937.9h4.972A.935.935,0,0,0,29.5,59l.234-5.966h1.5a.464.464,0,0,0,.461-.513l-.353-3.275h4.223l-.644,9.551A1.035,1.035,0,0,0,35.959,59.9h2.808a1.037,1.037,0,0,0,1.034-.973l.549-9.083a.192.192,0,0,1,.384,0l.55,9.084a1.037,1.037,0,0,0,1.033.973h2.8a1.036,1.036,0,0,0,1.033-1.111l-1.12-15.249c.329.921.573,1.567.577,1.578.458,1.26.911,2.273,1.209,2.9a1.192,1.192,0,0,0,1.614.552l.041-.021a2,2,0,0,0-.011.206v10.68a.463.463,0,1,0,.927,0V48.754a1.037,1.037,0,1,1,2.073,0v.714a.463.463,0,0,0,.927,0v-.714A1.972,1.972,0,0,0,51.058,46.894ZM41.893,35.717a1.277,1.277,0,1,1-2.553,0,1.3,1.3,0,0,1,.008-.142,3.864,3.864,0,0,0,2.535-.02,1.3,1.3,0,0,1,.01.162Zm-1.307-.865A2.952,2.952,0,0,1,37.637,31.9q0-.083,0-.164a.39.39,0,0,1,.39-.367h5.109a.39.39,0,0,1,.39.367q0,.081,0,.164a2.953,2.953,0,0,1-2.949,2.949ZM37.7,28.274a1.915,1.915,0,0,1,1.913-1.913h2.012a1.915,1.915,0,0,1,1.913,1.913v2.171H37.7Zm-15.82,3.9a1.53,1.53,0,0,1,1.861-1.386,1.388,1.388,0,0,0,1.344-.445,1.529,1.529,0,0,1,2.3,0,1.388,1.388,0,0,0,1.344.445,1.541,1.541,0,0,1,.457-.032h0A1.53,1.53,0,1,1,28.018,33.4a1.8,1.8,0,0,0,1-1.333.463.463,0,1,0-.923-.08c0,.007-.09.65-1.25.825a1.417,1.417,0,0,0-.269.034,1.544,1.544,0,0,1-.679,0,1.331,1.331,0,0,0-1.321.424,1.53,1.53,0,0,1-2.695-1.093ZM23.4,34.74a2.453,2.453,0,0,0,1.877-.872.408.408,0,0,1,.407-.118,2.478,2.478,0,0,0,1.09,0,.408.408,0,0,1,.407.118,2.453,2.453,0,0,0,1.877.872l.093,0a2.948,2.948,0,0,1-5.844,0Zm2.829,3.478a3.858,3.858,0,0,0,1.251-.208,1.277,1.277,0,0,1-2.5,0,3.858,3.858,0,0,0,1.251.208ZM23.581,58.96l-.232-5.93h2.266v5.941H23.592A.011.011,0,0,1,23.581,58.96Zm8.584-10.645H30.109a.211.211,0,0,1-.176-.094.2.2,0,0,1-.02-.192A9.888,9.888,0,0,0,30,40.676a.463.463,0,0,0-.862.341,8.962,8.962,0,0,1-.087,6.662,1.137,1.137,0,0,0,1.055,1.562h.306l.308,2.862H27.973a.463.463,0,0,0,0,.927h.835l-.232,5.93a.011.011,0,0,1-.011.011H26.542v-6.4a.463.463,0,0,0-.463-.463H21.456l.707-9.128a15.866,15.866,0,0,0,.616-2.152.463.463,0,1,0-.908-.187A20.55,20.55,0,0,1,19.028,47.2a.21.21,0,0,1-.24.088l-1.727-.537a.208.208,0,0,1-.135-.127.2.2,0,0,1,.016-.181,24.1,24.1,0,0,0,2.82-6.517,4.783,4.783,0,0,1,3.409-3.066l.045-.016.044-.018a3.908,3.908,0,0,0,.782.711c-.007.072-.012.145-.012.218a2.2,2.2,0,0,0,4.407,0c0-.073,0-.146-.012-.218a3.907,3.907,0,0,0,.691-.607,5.478,5.478,0,0,1,3.091,2.7c1.046,2.058,1.032,4.978-.041,8.684Zm15.853-.573a.265.265,0,0,1-.359-.123c-.29-.61-.73-1.6-1.178-2.827-.01-.028-1.053-2.784-1.736-5.05a.463.463,0,0,0-.865-.058l0,.008c0,.009-.007.018-.011.028l-.005.015c0,.008,0,.017-.007.025l0,.018c0,.009,0,.017,0,.026s0,.012,0,.018,0,.019,0,.029,0,.011,0,.016,0,.02,0,.03,0,.009,0,.013v.007h0l.254,3.461H42.908a.463.463,0,0,0,0,.927h1.254l1.068,14.548a.108.108,0,0,1-.108.116h-2.8a.109.109,0,0,1-.108-.1l-.55-9.084a1.119,1.119,0,0,0-2.234,0l-.549,9.084a.109.109,0,0,1-.108.1H35.959a.108.108,0,0,1-.108-.116l.982-14.548h4.142a.463.463,0,1,0,0-.927H36.9l.234-3.472a.463.463,0,1,0-.925-.062l-.571,8.469h-2.5a15.268,15.268,0,0,0,.558-7.194l.351-3.335a4.268,4.268,0,0,1,.345-1.313,4.147,4.147,0,0,1,3.057-2.312,3.906,3.906,0,0,0,1.047,1,2.2,2.2,0,1,0,4.263,0c0-.01-.006-.021-.01-.031a3.908,3.908,0,0,0,.941-.889l.02.006.108.027.006,0a4.386,4.386,0,0,1,3.348,3.336,81.436,81.436,0,0,0,3.024,8.758.265.265,0,0,1-.123.345l-2.044,1.033Z"
                                transform="translate(-14.854 -25.434)"
                              />
                              <path
                                id="Path_5371"
                                data-name="Path 5371"
                                d="M335.852,122.6a.871.871,0,0,1-.968.013.386.386,0,0,0-.455.624,1.693,1.693,0,0,0,.937.289,1.656,1.656,0,0,0,.9-.275.386.386,0,0,0-.415-.652Z"
                                transform="translate(-309.596 -115.042)"
                              />
                              <path
                                id="Path_5372"
                                data-name="Path 5372"
                                d="M148.227,155.475a1.693,1.693,0,0,0,.937.289,1.657,1.657,0,0,0,.9-.275.386.386,0,1,0-.415-.652.871.871,0,0,1-.968.013.386.386,0,0,0-.455.624Z"
                                transform="translate(-137.778 -144.786)"
                              />
                            </g>
                          </g>
                        </g>
                      </svg>