<svg width="44" height="44" viewBox="0 0 44 44" fill="none" xmlns="http://www.w3.org/2000/svg">
                    <g clip-path="url(#clip0_3_37)">
                      <path d="M35.0422 20.6301H28.8142C27.1573 20.6301 25.8142 21.9732 25.8142 23.6301V25.7821C25.8142 27.439 27.1573 28.7821 28.8142 28.7821H35.0422C36.699 28.7821 38.0422 27.439 38.0422 25.7821V23.6301C38.0422 21.9732 36.699 20.6301 35.0422 20.6301Z" fill="#FFD70C"></path>
                      <mask id="mask0_3_37" style="mask-type: luminance" maskUnits="userSpaceOnUse" x="4" y="5" width="36" height="34">
                        <path d="M39.4012 5.5791H4.07617V38.3991H39.4012V5.5791Z" fill="white"></path>
                      </mask>
                      <g mask="url(#mask0_3_37)">
                        <path d="M31.1992 11.8921H31.8502C32.7042 11.8921 33.5582 11.8841 34.4122 11.8921C35.5589 11.9002 36.6684 12.3001 37.5565 13.0255C38.4447 13.7509 39.0582 14.7581 39.2952 15.8801C39.3639 16.2211 39.3974 16.5683 39.3952 16.9161C39.4012 22.3941 39.4012 27.8724 39.3952 33.3511C39.4007 34.5855 38.9495 35.7783 38.1283 36.6999C37.3071 37.6216 36.174 38.2068 34.9472 38.3431C34.6665 38.3724 34.3844 38.3854 34.1022 38.3821C30.4568 38.3821 26.8115 38.3821 23.1662 38.3821C20.5332 38.3821 17.8992 38.3991 15.2662 38.4001C13.1912 38.4001 11.1162 38.4001 9.04017 38.3761C7.71813 38.3619 6.45534 37.8255 5.52714 36.884C4.59894 35.9425 4.08061 34.6722 4.08517 33.3501C4.08517 26.2494 4.08517 19.1494 4.08517 12.0501C4.0593 11.3799 4.07299 10.7087 4.12617 10.0401C4.21238 9.13152 4.55233 8.26549 5.1072 7.54087C5.66207 6.81625 6.4095 6.26225 7.26417 5.94211C7.85384 5.69517 8.48794 5.57196 9.12717 5.58011C14.8025 5.58011 20.4778 5.58011 26.1532 5.58011C27.317 5.56649 28.4488 5.9617 29.3511 6.69686C30.2535 7.43202 30.8693 8.46052 31.0912 9.60311C31.1693 10.1998 31.2051 10.8013 31.1982 11.4031C31.2052 11.5531 31.1982 11.7031 31.1982 11.8841M6.60917 14.4151C6.60917 14.5081 6.60917 14.5791 6.60917 14.6491C6.60917 16.5491 6.62017 18.4491 6.62117 20.3431C6.62117 24.6651 6.62117 28.9874 6.62117 33.3101C6.60408 33.8442 6.75826 34.3698 7.06117 34.8101C7.28675 35.1323 7.58803 35.394 7.93852 35.5724C8.28901 35.7508 8.67796 35.8403 9.07117 35.8331C10.9102 35.8501 12.7502 35.8331 14.5892 35.8391C18.6485 35.8431 22.7075 35.8478 26.7662 35.8531C29.3212 35.8531 31.8772 35.8621 34.4322 35.8481C34.7564 35.8492 35.0776 35.7856 35.3769 35.661C35.6762 35.5364 35.9476 35.3532 36.1753 35.1223C36.4029 34.8915 36.5821 34.6175 36.7025 34.3164C36.8229 34.0153 36.8819 33.6933 36.8762 33.3691C36.8762 32.1604 36.8762 30.9518 36.8762 29.7431C36.8762 29.6811 36.8762 29.6181 36.8762 29.5431C36.0462 29.5431 35.2452 29.5431 34.4442 29.5431C32.9662 29.5431 31.4882 29.5571 30.0112 29.5511C29.4805 29.5642 28.9497 29.5368 28.4232 29.4691C27.3307 29.2805 26.331 28.7365 25.5793 27.9215C24.8277 27.1066 24.3661 26.0663 24.2662 24.9621C24.1737 24.0809 24.3209 23.1912 24.6923 22.3868C25.0637 21.5824 25.6455 20.8932 26.3762 20.3921C27.2425 19.7602 28.2932 19.4322 29.3652 19.4591C31.7892 19.4661 34.2132 19.4591 36.6362 19.4591H36.8682C36.8682 18.4951 36.8792 17.5591 36.8622 16.6181C36.8467 16.2614 36.7344 15.9157 36.5372 15.6181C36.3058 15.233 35.9742 14.918 35.5777 14.7067C35.1813 14.4953 34.7349 14.3956 34.2862 14.4181C30.3715 14.4181 26.4568 14.4218 22.5422 14.4291C17.8522 14.4291 13.1622 14.4251 8.47217 14.4171H6.60917M28.6762 11.8801C28.6762 11.4021 28.6982 10.9351 28.6682 10.4721C28.6518 10.1781 28.5901 9.8883 28.4852 9.61311C28.2943 9.1513 27.9666 8.75904 27.5461 8.48908C27.1256 8.21912 26.6325 8.08442 26.1332 8.10311C23.0132 8.10311 19.8932 8.10311 16.7732 8.10311C14.2245 8.10311 11.6758 8.10311 9.12717 8.10311C8.55369 8.08318 7.99189 8.26836 7.54266 8.6254C7.09344 8.98243 6.78621 9.48793 6.67617 10.0511C6.60624 10.6582 6.57584 11.2691 6.58517 11.8801H28.6762ZM36.8762 21.9801H36.7262C34.4662 21.9801 32.2072 21.9741 29.9472 21.9851C29.5022 21.9699 29.0569 22.0085 28.6212 22.1001C28.0721 22.2592 27.5942 22.6017 27.267 23.0705C26.9399 23.5392 26.7832 24.106 26.8232 24.6762C26.8632 25.2464 27.0974 25.7858 27.4868 26.2043C27.8762 26.6228 28.3973 26.8952 28.9632 26.9761C29.5572 27.0251 30.1562 27.0231 30.7532 27.0251C32.7232 27.0301 34.6942 27.0251 36.6642 27.0251H36.8762V21.9801Z" fill="black"></path>
                      </g>
                    </g>
                    <defs>
                      <clipPath id="clip0_3_37">
                        <rect width="44" height="44" fill="white"></rect>
                      </clipPath>
                    </defs>
                  </svg>